<svg xmlns="http://www.w3.org/2000/svg" xmlns:xlink="http://www.w3.org/1999/xlink" width="200" zoomAndPan="magnify" viewBox="0 0 150 30.000001" height="40" preserveAspectRatio="xMidYMid meet" version="1.0"><defs><g/></defs><g fill="#000000" fill-opacity="1"><g transform="translate(13.796365, 19.243807)"><g><path d="M 15.734375 -12.484375 L 15.296875 -12.484375 C 15.179688 -13.648438 14.8125 -14.523438 14.1875 -15.109375 C 13.570312 -15.703125 12.875 -16 12.09375 -16 L 10.171875 -16 L 10.171875 -2.65625 C 10.171875 -2.050781 10.25 -1.59375 10.40625 -1.28125 C 10.570312 -0.96875 10.828125 -0.753906 11.171875 -0.640625 C 11.523438 -0.523438 12.007812 -0.457031 12.625 -0.4375 L 12.625 0 L 3.765625 0 L 3.765625 -0.4375 C 4.390625 -0.4375 4.867188 -0.484375 5.203125 -0.578125 C 5.546875 -0.671875 5.800781 -0.875 5.96875 -1.1875 C 6.144531 -1.5 6.234375 -1.972656 6.234375 -2.609375 L 6.234375 -16 L 4.109375 -16 C 3.367188 -16 2.710938 -15.675781 2.140625 -15.03125 C 1.566406 -14.382812 1.222656 -13.535156 1.109375 -12.484375 L 0.671875 -12.484375 L 0.671875 -16.921875 L 15.734375 -16.921875 Z M 15.734375 -12.484375 "/></g></g></g><g fill="#000000" fill-opacity="1"><g transform="translate(28.445304, 19.243807)"><g><path d="M 5.71875 -11.703125 C 6.71875 -11.703125 7.554688 -11.445312 8.234375 -10.9375 C 8.921875 -10.425781 9.4375 -9.769531 9.78125 -8.96875 C 10.125 -8.175781 10.300781 -7.351562 10.3125 -6.5 L 10.3125 -6.078125 L 3.84375 -6.078125 C 3.9375 -4.710938 4.289062 -3.613281 4.90625 -2.78125 C 5.53125 -1.945312 6.300781 -1.53125 7.21875 -1.53125 C 7.8125 -1.53125 8.316406 -1.6875 8.734375 -2 C 9.148438 -2.320312 9.53125 -2.785156 9.875 -3.390625 L 10.3125 -3.125 C 9.757812 -1.945312 9.097656 -1.070312 8.328125 -0.5 C 7.554688 0.0625 6.644531 0.34375 5.59375 0.34375 C 4.539062 0.34375 3.640625 0.0859375 2.890625 -0.421875 C 2.140625 -0.941406 1.566406 -1.644531 1.171875 -2.53125 C 0.785156 -3.414062 0.59375 -4.410156 0.59375 -5.515625 C 0.59375 -6.617188 0.820312 -7.640625 1.28125 -8.578125 C 1.738281 -9.523438 2.359375 -10.28125 3.140625 -10.84375 C 3.929688 -11.414062 4.789062 -11.703125 5.71875 -11.703125 Z M 7.3125 -7.515625 C 7.3125 -8.679688 7.179688 -9.539062 6.921875 -10.09375 C 6.671875 -10.65625 6.269531 -10.9375 5.71875 -10.9375 C 5.125 -10.9375 4.660156 -10.566406 4.328125 -9.828125 C 4.003906 -9.097656 3.84375 -8.257812 3.84375 -7.3125 L 3.84375 -6.890625 L 7.3125 -6.890625 Z M 7.3125 -7.515625 "/></g></g></g><g fill="#000000" fill-opacity="1"><g transform="translate(39.229204, 19.243807)"><g><path d="M 8.15625 -11.703125 C 8.90625 -11.703125 9.53125 -11.515625 10.03125 -11.140625 C 10.53125 -10.773438 10.851562 -10.265625 11 -9.609375 C 11.46875 -10.273438 12.007812 -10.789062 12.625 -11.15625 C 13.25 -11.519531 13.898438 -11.703125 14.578125 -11.703125 C 15.546875 -11.703125 16.285156 -11.394531 16.796875 -10.78125 C 17.304688 -10.175781 17.5625 -9.4375 17.5625 -8.5625 L 17.5625 -1.75 C 17.5625 -1.375 17.644531 -1.066406 17.8125 -0.828125 C 17.988281 -0.585938 18.265625 -0.457031 18.640625 -0.4375 L 18.640625 0 L 13.125 0 L 13.125 -0.4375 C 13.550781 -0.457031 13.832031 -0.566406 13.96875 -0.765625 C 14.113281 -0.972656 14.1875 -1.34375 14.1875 -1.875 L 14.1875 -8.84375 C 14.1875 -9.101562 14.109375 -9.375 13.953125 -9.65625 C 13.804688 -9.945312 13.554688 -10.09375 13.203125 -10.09375 C 12.859375 -10.09375 12.535156 -9.984375 12.234375 -9.765625 C 11.941406 -9.546875 11.597656 -9.15625 11.203125 -8.59375 L 11.203125 -1.921875 C 11.203125 -1.035156 11.554688 -0.539062 12.265625 -0.4375 L 12.265625 0 L 6.796875 0 L 6.796875 -0.4375 C 7.484375 -0.519531 7.828125 -1.039062 7.828125 -2 L 7.828125 -8.71875 C 7.828125 -9.09375 7.742188 -9.410156 7.578125 -9.671875 C 7.421875 -9.941406 7.148438 -10.078125 6.765625 -10.078125 C 6.128906 -10.078125 5.488281 -9.582031 4.84375 -8.59375 L 4.84375 -1.953125 C 4.84375 -1.046875 5.207031 -0.539062 5.9375 -0.4375 L 5.9375 0 L 0.34375 0 L 0.34375 -0.4375 C 0.738281 -0.488281 1.023438 -0.625 1.203125 -0.84375 C 1.390625 -1.070312 1.484375 -1.460938 1.484375 -2.015625 L 1.484375 -9.328125 C 1.484375 -9.921875 1.382812 -10.335938 1.1875 -10.578125 C 0.988281 -10.816406 0.707031 -10.953125 0.34375 -10.984375 L 0.34375 -11.421875 L 4.84375 -11.421875 L 4.84375 -9.828125 L 4.90625 -9.828125 C 5.40625 -10.484375 5.914062 -10.957031 6.4375 -11.25 C 6.96875 -11.550781 7.539062 -11.703125 8.15625 -11.703125 Z M 8.15625 -11.703125 "/></g></g></g><g fill="#000000" fill-opacity="1"><g transform="translate(58.211818, 19.243807)"><g><path d="M 6.25 -11.703125 C 7.664062 -11.703125 8.703125 -11.410156 9.359375 -10.828125 C 10.015625 -10.253906 10.34375 -9.523438 10.34375 -8.640625 L 10.34375 -2.5625 C 10.34375 -1.65625 10.570312 -1.203125 11.03125 -1.203125 C 11.164062 -1.203125 11.273438 -1.238281 11.359375 -1.3125 C 11.453125 -1.382812 11.554688 -1.515625 11.671875 -1.703125 L 11.890625 -1.484375 C 11.660156 -0.921875 11.300781 -0.472656 10.8125 -0.140625 C 10.320312 0.179688 9.769531 0.34375 9.15625 0.34375 C 8.53125 0.34375 8.023438 0.1875 7.640625 -0.125 C 7.253906 -0.4375 7.03125 -0.894531 6.96875 -1.5 C 6.875 -1.4375 6.726562 -1.320312 6.53125 -1.15625 C 5.945312 -0.675781 5.410156 -0.304688 4.921875 -0.046875 C 4.429688 0.210938 3.863281 0.34375 3.21875 0.34375 C 2.582031 0.34375 2.046875 0.113281 1.609375 -0.34375 C 1.171875 -0.800781 0.953125 -1.359375 0.953125 -2.015625 C 0.953125 -2.867188 1.328125 -3.628906 2.078125 -4.296875 C 2.828125 -4.972656 3.644531 -5.519531 4.53125 -5.9375 L 6.96875 -7.109375 L 6.96875 -9.359375 C 6.96875 -9.765625 6.835938 -10.109375 6.578125 -10.390625 C 6.328125 -10.679688 5.929688 -10.828125 5.390625 -10.828125 C 4.910156 -10.828125 4.507812 -10.726562 4.1875 -10.53125 C 3.875 -10.34375 3.71875 -10.109375 3.71875 -9.828125 C 3.71875 -9.722656 3.742188 -9.617188 3.796875 -9.515625 C 3.859375 -9.421875 3.929688 -9.328125 4.015625 -9.234375 C 4.160156 -9.054688 4.273438 -8.882812 4.359375 -8.71875 C 4.441406 -8.550781 4.484375 -8.363281 4.484375 -8.15625 C 4.484375 -7.757812 4.332031 -7.4375 4.03125 -7.1875 C 3.738281 -6.945312 3.351562 -6.828125 2.875 -6.828125 C 2.351562 -6.828125 1.925781 -6.960938 1.59375 -7.234375 C 1.269531 -7.515625 1.109375 -7.882812 1.109375 -8.34375 C 1.109375 -8.9375 1.34375 -9.488281 1.8125 -10 C 2.28125 -10.519531 2.90625 -10.929688 3.6875 -11.234375 C 4.476562 -11.546875 5.332031 -11.703125 6.25 -11.703125 Z M 4.3125 -3.078125 C 4.3125 -2.679688 4.421875 -2.359375 4.640625 -2.109375 C 4.859375 -1.867188 5.140625 -1.75 5.484375 -1.75 C 5.765625 -1.75 6.015625 -1.796875 6.234375 -1.890625 C 6.460938 -1.992188 6.707031 -2.148438 6.96875 -2.359375 L 6.96875 -6.25 C 5.195312 -5.351562 4.3125 -4.296875 4.3125 -3.078125 Z M 4.3125 -3.078125 "/></g></g></g><g fill="#000000" fill-opacity="1"><g transform="translate(70.522209, 19.243807)"><g><path d="M 8.03125 -11.703125 C 9.007812 -11.703125 9.757812 -11.367188 10.28125 -10.703125 C 10.800781 -10.035156 11.0625 -9.21875 11.0625 -8.25 L 11.0625 -2.359375 C 11.0625 -1.890625 11.082031 -1.539062 11.125 -1.3125 C 11.164062 -1.09375 11.238281 -0.925781 11.34375 -0.8125 C 11.445312 -0.695312 11.628906 -0.570312 11.890625 -0.4375 L 11.890625 0 L 6.65625 0 L 6.65625 -0.4375 C 7.34375 -0.519531 7.6875 -1.046875 7.6875 -2.015625 L 7.6875 -8.421875 C 7.6875 -9.554688 7.320312 -10.125 6.59375 -10.125 C 5.957031 -10.125 5.335938 -9.65625 4.734375 -8.71875 L 4.734375 -1.875 C 4.734375 -1.050781 5.078125 -0.570312 5.765625 -0.4375 L 5.765625 0 L 0.421875 0 L 0.421875 -0.4375 C 0.710938 -0.507812 0.941406 -0.660156 1.109375 -0.890625 C 1.273438 -1.117188 1.359375 -1.488281 1.359375 -2 L 1.359375 -9.5 C 1.359375 -9.832031 1.285156 -10.140625 1.140625 -10.421875 C 1.003906 -10.710938 0.765625 -10.898438 0.421875 -10.984375 L 0.421875 -11.421875 L 4.734375 -11.421875 L 4.734375 -9.90625 C 5.253906 -10.507812 5.773438 -10.957031 6.296875 -11.25 C 6.828125 -11.550781 7.40625 -11.703125 8.03125 -11.703125 Z M 8.03125 -11.703125 "/></g></g></g><g fill="#0097b2" fill-opacity="1"><g transform="translate(82.838703, 19.243807)"><g><path d="M 8.8125 -16.46875 C 8.207031 -16.457031 7.738281 -16.382812 7.40625 -16.25 C 7.082031 -16.125 6.859375 -15.910156 6.734375 -15.609375 C 6.609375 -15.316406 6.546875 -14.898438 6.546875 -14.359375 L 6.546875 -9.453125 L 13.6875 -9.453125 L 13.6875 -14.328125 C 13.6875 -14.941406 13.613281 -15.398438 13.46875 -15.703125 C 13.332031 -16.003906 13.113281 -16.203125 12.8125 -16.296875 C 12.507812 -16.398438 12.070312 -16.457031 11.5 -16.46875 L 11.5 -16.921875 L 20.015625 -16.921875 L 20.015625 -16.46875 C 19.347656 -16.457031 18.847656 -16.394531 18.515625 -16.28125 C 18.191406 -16.175781 17.960938 -15.976562 17.828125 -15.6875 C 17.691406 -15.394531 17.625 -14.953125 17.625 -14.359375 L 17.625 -2.578125 C 17.625 -1.960938 17.703125 -1.5 17.859375 -1.1875 C 18.015625 -0.882812 18.238281 -0.6875 18.53125 -0.59375 C 18.832031 -0.507812 19.265625 -0.457031 19.828125 -0.4375 L 19.828125 0 L 11.5 0 L 11.5 -0.4375 C 12.101562 -0.457031 12.554688 -0.515625 12.859375 -0.609375 C 13.171875 -0.710938 13.382812 -0.910156 13.5 -1.203125 C 13.625 -1.503906 13.6875 -1.945312 13.6875 -2.53125 L 13.6875 -8.390625 L 6.546875 -8.390625 L 6.546875 -2.5625 C 6.546875 -1.9375 6.625 -1.472656 6.78125 -1.171875 C 6.9375 -0.878906 7.164062 -0.6875 7.46875 -0.59375 C 7.769531 -0.507812 8.21875 -0.457031 8.8125 -0.4375 L 8.8125 0 L 0.71875 0 L 0.71875 -0.4375 C 1.4375 -0.4375 1.929688 -0.597656 2.203125 -0.921875 C 2.472656 -1.242188 2.609375 -1.796875 2.609375 -2.578125 L 2.609375 -14.328125 C 2.609375 -14.941406 2.535156 -15.394531 2.390625 -15.6875 C 2.253906 -15.976562 2.019531 -16.175781 1.6875 -16.28125 C 1.363281 -16.394531 0.882812 -16.457031 0.25 -16.46875 L 0.25 -16.921875 L 8.8125 -16.921875 Z M 8.8125 -16.46875 "/></g></g></g><g fill="#0097b2" fill-opacity="1"><g transform="translate(103.1016, 19.243807)"><g><path d="M 3.46875 -17.28125 C 4 -17.28125 4.445312 -17.09375 4.8125 -16.71875 C 5.1875 -16.351562 5.375 -15.910156 5.375 -15.390625 C 5.375 -14.867188 5.1875 -14.414062 4.8125 -14.03125 C 4.445312 -13.65625 4 -13.46875 3.46875 -13.46875 C 2.945312 -13.46875 2.492188 -13.65625 2.109375 -14.03125 C 1.734375 -14.414062 1.546875 -14.867188 1.546875 -15.390625 C 1.546875 -15.910156 1.734375 -16.351562 2.109375 -16.71875 C 2.492188 -17.09375 2.945312 -17.28125 3.46875 -17.28125 Z M 5.09375 -1.875 C 5.09375 -0.9375 5.503906 -0.457031 6.328125 -0.4375 L 6.328125 0 L 0.296875 0 L 0.296875 -0.4375 C 0.804688 -0.4375 1.171875 -0.550781 1.390625 -0.78125 C 1.609375 -1.007812 1.71875 -1.414062 1.71875 -2 L 1.71875 -9.453125 C 1.71875 -9.992188 1.609375 -10.382812 1.390625 -10.625 C 1.179688 -10.863281 0.816406 -10.984375 0.296875 -10.984375 L 0.296875 -11.421875 L 5.09375 -11.421875 Z M 5.09375 -1.875 "/></g></g></g><g fill="#0097b2" fill-opacity="1"><g transform="translate(109.773834, 19.243807)"><g><path d="M 7.640625 -11.703125 C 8.023438 -11.703125 8.34375 -11.546875 8.59375 -11.234375 C 8.84375 -10.929688 8.96875 -10.546875 8.96875 -10.078125 C 8.96875 -9.566406 8.84375 -9.15625 8.59375 -8.84375 C 8.34375 -8.53125 8.003906 -8.375 7.578125 -8.375 C 7.378906 -8.375 7.207031 -8.414062 7.0625 -8.5 C 6.914062 -8.582031 6.738281 -8.695312 6.53125 -8.84375 C 6.21875 -9.050781 5.988281 -9.15625 5.84375 -9.15625 C 5.570312 -9.15625 5.347656 -8.941406 5.171875 -8.515625 C 4.992188 -8.085938 4.90625 -7.601562 4.90625 -7.0625 L 4.90625 -1.953125 C 4.90625 -1.398438 5.007812 -1.007812 5.21875 -0.78125 C 5.4375 -0.550781 5.820312 -0.4375 6.375 -0.4375 L 6.375 0 L 0.265625 0 L 0.265625 -0.4375 C 1.109375 -0.4375 1.53125 -0.929688 1.53125 -1.921875 L 1.53125 -9.5 C 1.53125 -10.46875 1.109375 -10.960938 0.265625 -10.984375 L 0.265625 -11.421875 L 4.90625 -11.421875 L 4.90625 -9.375 L 4.953125 -9.375 C 5.722656 -10.925781 6.617188 -11.703125 7.640625 -11.703125 Z M 7.640625 -11.703125 "/></g></g></g><g fill="#0097b2" fill-opacity="1"><g transform="translate(118.735677, 19.243807)"><g><path d="M 5.71875 -11.703125 C 6.71875 -11.703125 7.554688 -11.445312 8.234375 -10.9375 C 8.921875 -10.425781 9.4375 -9.769531 9.78125 -8.96875 C 10.125 -8.175781 10.300781 -7.351562 10.3125 -6.5 L 10.3125 -6.078125 L 3.84375 -6.078125 C 3.9375 -4.710938 4.289062 -3.613281 4.90625 -2.78125 C 5.53125 -1.945312 6.300781 -1.53125 7.21875 -1.53125 C 7.8125 -1.53125 8.316406 -1.6875 8.734375 -2 C 9.148438 -2.320312 9.53125 -2.785156 9.875 -3.390625 L 10.3125 -3.125 C 9.757812 -1.945312 9.097656 -1.070312 8.328125 -0.5 C 7.554688 0.0625 6.644531 0.34375 5.59375 0.34375 C 4.539062 0.34375 3.640625 0.0859375 2.890625 -0.421875 C 2.140625 -0.941406 1.566406 -1.644531 1.171875 -2.53125 C 0.785156 -3.414062 0.59375 -4.410156 0.59375 -5.515625 C 0.59375 -6.617188 0.820312 -7.640625 1.28125 -8.578125 C 1.738281 -9.523438 2.359375 -10.28125 3.140625 -10.84375 C 3.929688 -11.414062 4.789062 -11.703125 5.71875 -11.703125 Z M 7.3125 -7.515625 C 7.3125 -8.679688 7.179688 -9.539062 6.921875 -10.09375 C 6.671875 -10.65625 6.269531 -10.9375 5.71875 -10.9375 C 5.125 -10.9375 4.660156 -10.566406 4.328125 -9.828125 C 4.003906 -9.097656 3.84375 -8.257812 3.84375 -7.3125 L 3.84375 -6.890625 L 7.3125 -6.890625 Z M 7.3125 -7.515625 "/></g></g></g><g fill="#0097b2" fill-opacity="1"><g transform="translate(129.519577, 19.243807)"><g><path d="M 3.34375 -3.625 C 3.882812 -3.625 4.347656 -3.429688 4.734375 -3.046875 C 5.117188 -2.660156 5.3125 -2.195312 5.3125 -1.65625 C 5.3125 -1.113281 5.117188 -0.644531 4.734375 -0.25 C 4.347656 0.144531 3.882812 0.34375 3.34375 0.34375 C 2.800781 0.34375 2.332031 0.144531 1.9375 -0.25 C 1.550781 -0.644531 1.359375 -1.113281 1.359375 -1.65625 C 1.359375 -2.195312 1.550781 -2.660156 1.9375 -3.046875 C 2.332031 -3.429688 2.800781 -3.625 3.34375 -3.625 Z M 3.34375 -3.625 "/></g></g></g></svg>